<?xml version="1.0" encoding="UTF-8"?>
<svg xmlns="http://www.w3.org/2000/svg" xmlns:xlink="http://www.w3.org/1999/xlink" width="110px" height="64px" viewBox="0 0 109 64" version="1.1">
<g id="surface1">
<path style=" stroke:none;fill-rule:nonzero;fill:rgb(0%,0%,0%);fill-opacity:1;" d="M 0 32.011719 L 0 64.019531 L 109.019531 64.019531 L 109.019531 0 L 0 0 Z M 57.328125 6.488281 C 68.933594 7.859375 78.25 16.527344 80.195312 27.773438 C 80.496094 29.46875 80.601562 32.601562 80.421875 34.328125 C 80.15625 36.945312 79.441406 39.636719 78.199219 42.734375 L 77.472656 44.558594 L 76.316406 44.589844 C 75.675781 44.601562 75.113281 44.570312 75.058594 44.515625 C 74.996094 44.449219 75.199219 43.796875 75.613281 42.691406 C 77.515625 37.726562 78.082031 35.261719 78.082031 31.902344 C 78.070312 27.988281 77.1875 24.515625 75.324219 21.074219 C 74.21875 19.035156 72.941406 17.363281 71.144531 15.59375 C 67.582031 12.097656 63.242188 9.917969 58.09375 9.039062 C 57.191406 8.890625 56.371094 8.847656 54.191406 8.847656 C 51.179688 8.859375 50.4375 8.945312 48.03125 9.554688 C 44.800781 10.378906 41.511719 12.042969 38.875 14.1875 C 37.886719 14.992188 36.089844 16.804688 35.300781 17.800781 C 32.78125 20.964844 31.015625 25.148438 30.453125 29.308594 L 30.367188 29.929688 L 28.34375 28.664062 L 28.367188 28.042969 C 28.398438 27.164062 29.070312 24.558594 29.632812 23.078125 C 30.972656 19.59375 32.769531 16.816406 35.472656 14.101562 C 36.289062 13.277344 37.441406 12.226562 38.035156 11.785156 C 41.875 8.878906 46.332031 7.066406 51.023438 6.488281 C 52.605469 6.292969 55.722656 6.292969 57.328125 6.488281 Z M 29.695312 30.378906 L 30.3125 30.722656 L 30.300781 31.636719 L 30.300781 32.546875 L 29.195312 31.367188 C 28.378906 30.5 28.078125 30.113281 28.078125 29.910156 C 28.078125 29.492188 28.175781 29.46875 28.652344 29.769531 C 28.898438 29.910156 29.367188 30.1875 29.695312 30.378906 Z M 69.804688 44.570312 L 70.945312 44.75 L 70.945312 45.136719 C 70.945312 45.351562 71.039062 47.261719 71.15625 49.382812 C 71.273438 51.507812 71.367188 53.363281 71.367188 53.511719 C 71.367188 53.664062 72.101562 51.859375 73.007812 49.511719 C 73.902344 47.175781 74.65625 45.234375 74.675781 45.199219 C 74.75 45.125 77.113281 45.277344 77.113281 45.363281 C 77.113281 45.40625 76.015625 48.160156 74.675781 51.484375 L 72.242188 57.535156 L 70.804688 57.566406 L 69.359375 57.597656 L 69.304688 57.242188 C 69.273438 57.050781 69.050781 54.230469 68.816406 50.992188 C 68.582031 47.742188 68.371094 44.933594 68.347656 44.738281 C 68.285156 44.332031 68.242188 44.332031 69.804688 44.570312 Z M 97.460938 45.621094 C 97.789062 45.757812 98.386719 46.347656 98.386719 46.542969 C 98.386719 46.59375 98.4375 46.765625 98.492188 46.925781 L 98.609375 47.21875 L 98.90625 46.746094 C 99.617188 45.597656 100.714844 45.191406 101.734375 45.683594 C 102.394531 46.003906 102.671875 46.585938 102.726562 47.722656 C 102.757812 48.472656 102.628906 49.40625 102.066406 52.867188 C 101.683594 55.195312 101.34375 57.210938 101.308594 57.351562 C 101.257812 57.578125 101.203125 57.585938 100.085938 57.585938 C 99.351562 57.585938 98.917969 57.542969 98.917969 57.480469 C 98.917969 57.414062 99.257812 55.3125 99.671875 52.792969 C 100.480469 47.894531 100.492188 47.828125 99.925781 47.613281 C 99.597656 47.484375 99.214844 47.625 98.980469 47.945312 C 98.660156 48.40625 98.492188 49.179688 97.851562 53.082031 C 97.503906 55.238281 97.183594 57.125 97.152344 57.296875 L 97.085938 57.585938 L 95.929688 57.585938 C 94.949219 57.585938 94.769531 57.566406 94.769531 57.425781 C 94.769531 57.328125 95.097656 55.238281 95.511719 52.761719 C 96.078125 49.328125 96.238281 48.203125 96.152344 47.988281 C 96.011719 47.625 95.578125 47.464844 95.214844 47.636719 C 94.621094 47.925781 94.492188 48.386719 93.707031 53.105469 C 93.289062 55.539062 92.960938 57.542969 92.960938 57.554688 C 92.960938 57.578125 92.4375 57.585938 91.789062 57.585938 C 90.992188 57.585938 90.621094 57.542969 90.621094 57.46875 C 90.621094 57.328125 92.40625 46.292969 92.480469 45.917969 C 92.535156 45.695312 92.578125 45.683594 93.714844 45.683594 L 94.90625 45.683594 L 94.832031 46.132812 L 94.757812 46.59375 L 95.171875 46.1875 C 95.84375 45.535156 96.738281 45.308594 97.460938 45.621094 Z M 86.898438 45.8125 C 86.898438 45.886719 86.546875 48.0625 86.109375 50.636719 L 85.335938 55.335938 L 88.292969 55.335938 L 88.257812 56.429688 L 88.226562 57.535156 L 79.292969 57.535156 L 79.261719 56.429688 L 79.230469 55.335938 L 80.984375 55.335938 C 82.730469 55.335938 82.75 55.335938 82.804688 55.089844 C 82.835938 54.960938 83.113281 53.296875 83.417969 51.390625 L 83.996094 47.9375 L 81.15625 47.9375 L 81.15625 45.683594 L 84.027344 45.683594 C 86.25 45.683594 86.898438 45.714844 86.898438 45.8125 Z M 86.898438 45.8125 "/>
</g>
</svg>
